<svg width="22" height="22" viewBox="0 0 22 22" fill="none" xmlns="http://www.w3.org/2000/svg">
<path d="M20.7963 19.2041L16.3441 14.75C17.679 13.0104 18.3023 10.8282 18.0874 8.64607C17.8725 6.4639 16.8356 4.44516 15.1871 2.99937C13.5385 1.55357 11.4018 0.788988 9.21021 0.860713C7.01865 0.932437 4.93644 1.8351 3.38595 3.38559C1.83546 4.93608 0.932796 7.0183 0.861071 9.20985C0.789347 11.4014 1.55393 13.5382 2.99972 15.1867C4.44552 16.8353 6.46426 17.8722 8.64643 18.087C10.8286 18.3019 13.0108 17.6787 14.7504 16.3438L19.2063 20.8006C19.3109 20.9053 19.4352 20.9883 19.5719 21.0449C19.7086 21.1016 19.8552 21.1307 20.0032 21.1307C20.1512 21.1307 20.2977 21.1016 20.4344 21.0449C20.5712 20.9883 20.6954 20.9053 20.8 20.8006C20.9047 20.696 20.9877 20.5717 21.0443 20.435C21.101 20.2983 21.1301 20.1517 21.1301 20.0037C21.1301 19.8558 21.101 19.7092 21.0443 19.5725C20.9877 19.4358 20.9047 19.3115 20.8 19.2069L20.7963 19.2041ZM3.12536 9.5C3.12536 8.23915 3.49925 7.0066 4.19974 5.95824C4.90024 4.90988 5.89587 4.09278 7.06075 3.61027C8.22563 3.12776 9.50743 3.00151 10.7441 3.2475C11.9807 3.49348 13.1166 4.10064 14.0082 4.9922C14.8997 5.88376 15.5069 7.01967 15.7529 8.2563C15.9988 9.49293 15.8726 10.7747 15.3901 11.9396C14.9076 13.1045 14.0905 14.1001 13.0421 14.8006C11.9938 15.5011 10.7612 15.875 9.50036 15.875C7.81014 15.8733 6.18964 15.2011 4.99447 14.0059C3.7993 12.8107 3.1271 11.1902 3.12536 9.5Z" fill="black" fill-opacity="0.4"/>
</svg>
